<svg xmlns="http://www.w3.org/2000/svg" viewBox="0 0 600 600" width="600" height="600">
  <defs>
    <radialGradient id="bg" cx="300" cy="200" r="470" gradientUnits="userSpaceOnUse">
      <stop offset="0" stop-color="#44202a"/>
      <stop offset="0.55" stop-color="#180d11"/>
      <stop offset="1" stop-color="#0a0608"/>
    </radialGradient>
    <radialGradient id="rim" cx="300" cy="280" r="260" gradientUnits="userSpaceOnUse">
      <stop offset="0" stop-color="#E0453A" stop-opacity="0.2"/>
      <stop offset="1" stop-color="#E0453A" stop-opacity="0"/>
    </radialGradient>
    <linearGradient id="shade" x1="182" y1="0" x2="418" y2="0" gradientUnits="userSpaceOnUse">
      <stop offset="0" stop-color="#000000" stop-opacity="0.45"/>
      <stop offset="0.42" stop-color="#000000" stop-opacity="0"/>
      <stop offset="0.72" stop-color="#ffffff" stop-opacity="0.06"/>
      <stop offset="1" stop-color="#000000" stop-opacity="0.32"/>
    </linearGradient>
    <linearGradient id="hair" x1="0" y1="150" x2="0" y2="440" gradientUnits="userSpaceOnUse">
      <stop offset="0" stop-color="#100c0b" stop-opacity="1"/>
      <stop offset="0.26" stop-color="#100c0b" stop-opacity="1"/>
      <stop offset="0.38" stop-color="#100c0b" stop-opacity="0.5"/>
      <stop offset="0.5" stop-color="#100c0b" stop-opacity="0.12"/>
      <stop offset="0.56" stop-color="#100c0b" stop-opacity="0"/>
    </linearGradient>
    <clipPath id="head">
      <ellipse cx="300" cy="290" rx="118" ry="140"/>
    </clipPath>
    <radialGradient id="vig" cx="300" cy="270" r="430" gradientUnits="userSpaceOnUse">
      <stop offset="0.55" stop-color="#000000" stop-opacity="0"/>
      <stop offset="1" stop-color="#000000" stop-opacity="0.6"/>
    </radialGradient>
  </defs>
  <rect width="600" height="600" fill="url(#bg)"/>
  <ellipse cx="300" cy="290" rx="260" ry="260" fill="url(#rim)"/>
  <path d="M30 600 C52 482 168 440 300 438 C432 440 548 482 570 600 Z" fill="#090607"/>
  <path d="M30 600 C52 482 168 440 300 438 C432 440 548 482 570 600" fill="none" stroke="#ffffff" stroke-opacity="0.08" stroke-width="3"/>
  <path d="M246 382 L354 382 L364 450 C338 462 262 462 236 450 Z" fill="#3a2218"/>
  <ellipse cx="183" cy="304" rx="17" ry="31" fill="#3a2218"/>
  <ellipse cx="417" cy="304" rx="17" ry="31" fill="#3a2218"/>
  <ellipse cx="300" cy="290" rx="118" ry="140" fill="#4a2e22"/>
  <g clip-path="url(#head)">
    <rect x="170" y="140" width="260" height="310" fill="url(#hair)"/>
    <rect x="170" y="140" width="260" height="310" fill="url(#shade)"/>
  </g>
  <g fill="#100c0b" stroke="#ffffff" stroke-opacity="0.09" stroke-width="2">
    <circle cx="250" cy="128" r="15"/>
    <circle cx="282" cy="122" r="16"/>
    <circle cx="316" cy="122" r="16"/>
    <circle cx="349" cy="128" r="15"/>
    <circle cx="222" cy="152" r="16"/>
    <circle cx="254" cy="150" r="17"/>
    <circle cx="287" cy="148" r="17"/>
    <circle cx="320" cy="148" r="17"/>
    <circle cx="353" cy="150" r="17"/>
    <circle cx="382" cy="154" r="16"/>
    <circle cx="204" cy="182" r="16"/>
    <circle cx="236" cy="178" r="17"/>
    <circle cx="269" cy="176" r="17"/>
    <circle cx="302" cy="175" r="17"/>
    <circle cx="335" cy="176" r="17"/>
    <circle cx="367" cy="179" r="17"/>
    <circle cx="397" cy="184" r="16"/>
    <circle cx="208" cy="212" r="15"/>
    <circle cx="239" cy="207" r="16"/>
    <circle cx="271" cy="205" r="16"/>
    <circle cx="303" cy="204" r="16"/>
    <circle cx="335" cy="205" r="16"/>
    <circle cx="366" cy="208" r="16"/>
    <circle cx="394" cy="213" r="15"/>
  </g>
  <g fill="none" stroke="#ffffff" stroke-opacity="0.08" stroke-width="2" stroke-linecap="round">
    <path d="M276 116 C281 112 288 112 292 116"/>
    <path d="M310 116 C315 112 322 112 326 116"/>
    <path d="M248 144 C253 140 260 140 264 144"/>
    <path d="M314 142 C319 138 326 138 330 142"/>
    <path d="M264 170 C269 166 276 166 280 170"/>
    <path d="M330 170 C335 166 342 166 346 170"/>
  </g>
  <path d="M256 428 C284 438 316 438 344 428" fill="none" stroke="#000000" stroke-opacity="0.3" stroke-width="6" stroke-linecap="round"/>
  <rect width="600" height="600" fill="url(#vig)"/>
</svg>
