<svg xmlns="http://www.w3.org/2000/svg" viewBox="0 0 1200 480" preserveAspectRatio="xMidYMid slice">
  <defs>
    <linearGradient id="bg" x1="0" y1="0" x2="1" y2="1">
      <stop offset="0" stop-color="#0B1428"/>
      <stop offset="0.55" stop-color="#101E3E"/>
      <stop offset="1" stop-color="#0A1020"/>
    </linearGradient>
    <radialGradient id="glow" cx="0.7" cy="0.25" r="0.7">
      <stop offset="0" stop-color="#5B8CFF" stop-opacity="0.35"/>
      <stop offset="0.6" stop-color="#5B8CFF" stop-opacity="0.08"/>
      <stop offset="1" stop-color="#5B8CFF" stop-opacity="0"/>
    </radialGradient>
    <linearGradient id="ribbon" x1="0" y1="0" x2="1" y2="0">
      <stop offset="0" stop-color="#5B8CFF" stop-opacity="0"/>
      <stop offset="0.5" stop-color="#5B8CFF" stop-opacity="0.55"/>
      <stop offset="1" stop-color="#5B8CFF" stop-opacity="0"/>
    </linearGradient>
  </defs>
  <rect width="1200" height="480" fill="url(#bg)"/>
  <rect width="1200" height="480" fill="url(#glow)"/>
  <g stroke="#8FB2FF" stroke-opacity="0.10" stroke-width="1">
    <path d="M-40 420 L520 -80"/><path d="M40 460 L640 -60"/><path d="M140 480 L760 -40"/>
    <path d="M260 480 L880 -20"/><path d="M400 480 L1020 0"/><path d="M560 480 L1160 20"/>
    <path d="M720 480 L1280 40"/><path d="M880 480 L1360 80"/>
  </g>
  <path d="M0 330 C 240 260, 420 400, 640 330 S 1040 260, 1200 320 L1200 480 L0 480 Z" fill="#0A1224" opacity="0.85"/>
  <path d="M0 356 C 260 292, 460 420, 700 352 S 1060 292, 1200 348" fill="none" stroke="url(#ribbon)" stroke-width="2.5"/>
  <g transform="translate(556 176) scale(3.4)" fill="none" stroke="#8FB2FF" stroke-opacity="0.5" stroke-width="1.6" stroke-linecap="round" stroke-linejoin="round">
    <circle cx="6" cy="6" r="3"/>
    <circle cx="6" cy="18" r="3"/>
    <path d="M8.12 8.12 20 20M14.47 14.48 20 4M8.12 15.88 12 12"/>
  </g>
</svg>
